<?xml version="1.0" encoding="utf-8"?>
<!-- Generator: Adobe Illustrator 19.0.0, SVG Export Plug-In . SVG Version: 6.00 Build 0)  -->
<svg version="1.1" id="Layer_1" xmlns="http://www.w3.org/2000/svg" xmlns:xlink="http://www.w3.org/1999/xlink" x="0px" y="0px"
	 viewBox="0 0 400 255" style="enable-background:new 0 0 400 255;" xml:space="preserve">
<style type="text/css">
	.st0{fill:#FFFFFF;}
	.st1{fill:#FFCF23;}
	.st2{font-family:'LuckiestGuy-Regular';}
	.st3{font-size:78px;}
	.st4{font-size:49px;}
	.st5{font-size:51px;}
</style>
<g id="XMLID_2_">
	<path id="XMLID_177_" class="st0" d="M378.4,82c-0.2-6.1-5.6-11.7-11.5-11.6c-5.1,0.1-11,5.8-11,10.7c-0.1,6.3,4.8,11.4,11,11.6
		c5,0.2,7.9-2.6,10.2-6.5C377.8,85,378,83.4,378.4,82z"/>
	<g id="XMLID_5_">
		<g id="XMLID_44_">
			<path id="XMLID_50_" class="st1" d="M390.6,178.2c0,15.8,0,31.5,0,47.3c-9.6,0-19.2,0-29,0c-0.3-3-0.4-5.9-0.9-8.6
				c-2.8-14.6-15.9-24.8-30.6-23.9c-15,0.9-26.8,12.8-27.7,27.8c-0.3,4.6-0.3,4.6-4.8,4.6c-39.3,0-78.6,0-117.9,0c-1,0-2,0-3.5,0
				c0-1.5,0-2.8,0-4c-0.3-15.2-12.9-27.8-28.3-28.4c-15.4-0.6-28.9,11.2-30.3,26.4c-0.6,6.1-0.6,6.1-6.8,6.1c-3.3,0-6.6,0-9.8-0.1
				c-0.2,0-0.4-0.1-0.8-0.3c-0.2-2.3-0.3-4.7-0.7-7.1c-2.5-15.2-15.8-26.1-30.5-25.1c-15.9,1.1-27.7,13.4-28,29.4
				c0,2.5-0.9,3.1-3.2,3.1c-7.8-0.1-15.6,0-23.3,0c0-61.6,0-123.3,0-184.9c0.2-0.5,0.5-1.1,0.7-1.7c2.9-14.5,15.1-24.7,29.9-24.6
				c84.9,0.1,169.7,0.2,254.6,0.4c17.6,0,30,12.4,31.3,30c1.5,21.6,3.5,43.2,5.2,64.9c0.5,6.2,1,12.4,1.5,18.7
				c0.1,1.8,0.3,3.6,0.5,5.6c2.8,0.2,5.5,0.1,8.1,0.6c8.3,1.6,13.5,6.6,16,14.7c0.3,1,1.5,2.2,2.5,2.5c14.1,3,22.5,11.4,25.3,25.5
				C390.2,177.4,390.5,177.8,390.6,178.2z M42.5,79.3c0-2-0.7-3.6-2.8-3.7c-6.3-0.1-12.6-0.1-19.1-0.1c0,21.2,0,42.1,0,63.4
				c5.9,0,11.5,0,17.2,0c4.2,0,4.8-0.6,4.8-4.8c0-14.1,0-28.2,0-42.3C42.5,87.7,42.4,83.5,42.5,79.3z"/>
			<path id="XMLID_46_" class="st1" d="M39.7,75.6c2.1,0.1,2.8,1.6,2.8,3.7c0,4.2,0,8.4,0,12.6c0,14.1,0,28.2,0,42.3
				c0,4.3-0.6,4.8-4.8,4.8c-5.6,0-11.2,0-17.2,0c0-21.3,0-42.2,0-63.4C27,75.6,33.3,75.5,39.7,75.6z"/>
		</g>
		<g id="XMLID_45_">
		</g>
	</g>
	<g id="XMLID_30_">
		<g id="XMLID_36_">
			<path id="XMLID_39_" class="st1" d="M381.6,201c2.6-0.1,3.4,0.7,3.3,3.3c-0.2,5.1-0.1,10.2-0.1,15.6c-5.8,0-11.1,0.1-16.4-0.1
				c-0.6,0-1.6-1.5-1.8-2.5c-1-5.9-3.1-11.1-6.2-15.5l2-1c0.5,0.5,1.2,0.7,2.3,0.6C370.3,201.2,376,201.3,381.6,201z"/>
			<path id="XMLID_38_" class="st1" d="M384.7,179.9c0.3,5,0,10.1,0,15.1h-22.5c-0.1,2-0.1,2.6-0.2,3.7c-0.1,1,0.1,1.6,0.5,2l-2,1
				c-5.1-7.3-12.9-12.3-22.6-14.1c-19.3-3.5-37.8,9.8-40.6,29.2c-0.3,2.2-0.8,3.2-3.2,3.1c-4.3-0.2-9.1-0.1-13.1-0.1v-8.8
				c0-11.3,0-22.5-0.3-33.8c-0.3-10.5,7.5-19.8,18-20.2c10.2-0.4,20.4-0.1,30.6-0.2c10.2,0,20.4,0,30.7,0
				C373.3,157,383.9,166.7,384.7,179.9z"/>
		</g>
		<g id="XMLID_37_">
		</g>
	</g>
	<g id="XMLID_22_">
		<g id="XMLID_25_">
			<path id="XMLID_27_" class="st1" d="M356.8,151.3c-1.3,0-2.3,0-3.4,0c-15.5-0.1-30.9-0.1-46.4-0.2c-14.6,0-14.7,0.1-26.3,8.3
				c-0.1-1-0.2-1.9-0.2-2.8c0-27.5,0-55.1,0-82.6c0-11.2-7-18.2-18.2-18.2c-8.2,0-16.4,0-24.6,0c-10.8,0-17.8,7-17.8,17.9
				c0,26.9,0,53.9,0,80.8c0,10.6,0,21.3,0,31.9c0,11.6,6.9,18.6,18.5,18.6c7.6,0,15.1-0.1,22.6,0c4.6,0.1,9-0.7,13-3.7V220h-2.9
				c-28.5,0-56.9-0.1-85.4,0c-2.8,0-3.8-0.7-4.3-3.6c-2.6-15.6-15.1-27.5-30-29c-16.4-1.7-31,6.8-37.2,21.8
				c-0.9,2.1-1.6,4.5-1.7,6.8c-0.1,3.5-1.8,4.4-4.9,3.9c-0.6-0.1-1.2-0.2-2-0.3c-0.7-6-2.2-11.7-5.7-16.7
				c-8.4-11.9-19.9-17.3-34.2-15.3c-14.2,1.9-23.7,10.3-28.7,23.8c-0.3,0.9-0.5,1.8-0.6,2.7c-1.1,5.8-1.1,5.9-7.1,5.9H21v-75.1
				c2,0,3.6,0,5.5,0c4.3,0,8.4,0.2,12.7,0.1c5.5-0.1,9.2-3.8,9.2-9.4c0-18.8,0-37.7,0-56.5c0-5.4-3.5-9.1-8.9-9.3
				c-4.4-0.1-8.8,0.1-13.2,0.1c-1.8,0-3.6,0-5.7,0c-0.1-1.6-0.2-2.9-0.2-4.2c0-6.8,0-13.5,0-20.3C20.5,30.4,31,19.9,46,19.9
				c43.5,0,87,0.1,130.6,0.2c41.1,0,82.1,0,123.2,0.1c12.4,0,22.3,7.6,24.8,19.3c1.1,5.3,1.2,10.7,1.8,16.4c-4.4,0-8.5,0.2-12.6-0.1
				c-6.1-0.4-11.9,3.5-11.8,11.6c0.3,20.6,0.1,41.2,0.1,61.7c0,6.1,4,10.3,10.1,10.4c9.9,0.1,19.9,0,29.8,0.1
				c7.3,0.1,12.5,3.7,14.6,10C356.7,150,356.7,150.4,356.8,151.3z M108.8,138.4c-0.2,0.1-0.4,0.2-0.7,0.3
				C108.3,138.7,108.6,138.6,108.8,138.4z"/>
		</g>
		<g id="XMLID_26_">
		</g>
	</g>
	<path id="XMLID_141_" class="st0" d="M162.5,6.6c-22.6,0-45.3,0-67.9,0c0-0.1,0-0.2,0-0.3c22.6,0,45.3,0,67.9,0
		C162.5,6.4,162.5,6.5,162.5,6.6z"/>
	<path id="XMLID_138_" class="st0" d="M314.2,222.5c-0.1-9.8,7.9-17.9,17.7-17.8c9.6,0,17.6,7.9,17.7,17.5c0.1,9.8-7.7,17.9-17.5,18
		C322.3,240.3,314.3,232.3,314.2,222.5z"/>
	<path id="XMLID_137_" class="st0" d="M88.3,222.5c-0.1,9.7-8.3,17.8-17.9,17.6c-9.7-0.1-17.8-8.4-17.6-18
		c0.2-9.6,8.2-17.5,17.8-17.5C80.3,204.7,88.4,212.9,88.3,222.5z"/>
	<path id="XMLID_136_" class="st0" d="M129.3,222.4c0-9.8,7.9-17.8,17.7-17.8c9.6,0,17.6,8,17.6,17.6c0.1,9.8-7.8,17.8-17.6,17.9
		C137.2,240.3,129.3,232.3,129.3,222.4z"/>
	<g id="XMLID_47_">
		<g id="XMLID_17_">
			<path id="XMLID_19_" class="st1" d="M70.9,198.7c13.1,0,23.6,10.6,23.6,23.6S84,246,70.9,246s-23.6-10.6-23.6-23.6
				S57.9,198.7,70.9,198.7z"/>
		</g>
		<g id="XMLID_18_">
		</g>
	</g>
	<g id="XMLID_11_">
		<g id="XMLID_12_">
			<path id="XMLID_16_" class="st1" d="M146.9,198.7c13.1,0,23.6,10.6,23.6,23.6S160,246,146.9,246s-23.6-10.6-23.6-23.6
				S133.9,198.7,146.9,198.7z"/>
		</g>
		<g id="XMLID_15_">
		</g>
	</g>
	<g id="XMLID_20_">
		<g id="XMLID_8_">
			<path id="XMLID_10_" class="st1" d="M332.9,198.7c13.1,0,23.6,10.6,23.6,23.6S346,246,332.9,246c-13.1,0-23.6-10.6-23.6-23.6
				S319.9,198.7,332.9,198.7z"/>
		</g>
		<g id="XMLID_9_">
		</g>
	</g>
</g>
<text id="XMLID_21_" transform="matrix(1 0 0 1 88.3265 139.0188)" class="st2 st3">AND</text>
<text id="XMLID_40_" transform="matrix(1 0 0 1 31.51 70.3654)" class="st2 st4">Bus Drivers</text>
<text id="XMLID_41_" transform="matrix(1 0 0 1 20.3643 188.4368)" class="st2 st5">Bananas</text>
<g id="XMLID_57_">
	<path id="XMLID_58_" d="M256.3,245.8c-1.6-0.1-3.4-0.2-3.9-0.3c-0.5-0.1-1.3-0.2-1.8-0.2c-1.1,0-1.3-0.2-0.9-1.1
		c0.2-0.3,0.5-1.1,0.7-1.6c0.7-1.5,2-3.5,3.2-4.6c1.6-1.6,2.3-2,4-2.6c1.5-0.5,4.3-0.5,6,0c0.8,0.3,1.5,0.3,2.2,0.3
		c0.9-0.1,1-0.1,1-0.5c0-0.4,0.3-28.9,0.3-31.3c0-0.9,0-0.9-0.8-1.4c-1.5-0.9-1.6-1.1-3-2.5c-1.5-1.5-2.3-2.8-2.9-4.4
		c-0.2-0.5-0.3-1-0.4-1c0,0-0.3,0.1-0.7,0.3c-0.9,0.6-1.7,0.8-3.2,0.7c-1.1-0.1-1.5-0.2-2.4-0.6c-1.8-0.9-3.5-2.8-4.3-4.8
		c-0.8-2.2-1.1-5.8-0.6-8.2c0.2-1.2,0.2-1.4,0-3.1c-0.3-2.3-0.3-6.4,0-8.8c0.6-4.1,1.5-7.2,3.3-10.7c0.7-1.4,2.3-4,2.7-4.3
		c0,0,0.5-0.6,1-1.3c1.1-1.4,3.2-3.4,4.7-4.5c0.6-0.4,1.7-1.5,2.5-2.3c0.9-0.9,1.7-1.7,1.9-1.7c0.2-0.1,0.8-0.4,1.2-0.6l0.8-0.4
		l-0.4-0.9c-1.6-3.3-2.6-7.6-2.9-12.8c-0.2-3.3-0.3-3.5-0.8-3.6c-0.6-0.1-1.8-1.1-2.3-1.9c-0.6-0.8-0.8-1.6-0.8-2.9
		c0-1.3,0.2-2,0.7-2.8c0.3-0.5,0.4-0.7,0.3-1.4c-0.3-2.3-0.4-4.5-0.4-8l0-3.9l0.8-0.8c2.3-2.4,3.7-5.7,4.1-9.8
		c0.2-1.7,0.3-1.9,0.9-1.9c0.5,0,2.6-0.6,3.4-0.9c2.8-1.2,4.3-2.5,5.8-4.7c0.4-0.6,0.8-1.2,0.8-1.3c0,0,0.5-0.7,1-1.4
		c1-1.3,1.6-1.9,2.8-3l0.5-0.5h5h5l1,0.9c1.3,1.1,2.5,2.5,3.9,4.5c1.1,1.6,3,3.7,3.5,3.8c0.2,0.1,0.3,0.2,0.3,0.2
		c0,0.1,2.1,1.2,3.2,1.6c0.7,0.3,2.6,0.8,2.9,0.8c0.6,0,0.9,0.5,0.9,1.5c0,1.1,0.5,3.7,1,4.9c0.9,2.4,1.6,3.6,3.1,5.2l0.8,0.8l0,3.6
		c0,2-0.1,4.7-0.2,6l-0.1,2.4l0.6,0.6c0.9,1,1.4,2.2,1.3,3.5c0,1.4-0.4,2.4-1.2,3.4c-0.6,0.7-1.8,1.5-2.3,1.5c-0.1,0-0.2,1-0.3,2.3
		c-0.6,6.6-1.2,9.9-2.9,13.8c-0.2,0.5-0.4,1-0.3,1c0,0,0.7,0.3,1.5,0.7c0.8,0.4,1.4,0.8,1.4,0.8c0,0.1,0.1,0.1,0.2,0.1
		s0.8,0.6,1.5,1.3c0.7,0.8,1.7,1.6,2.1,2c1.4,1.1,1.7,1.4,3.4,3c0.9,0.9,1.9,2.1,2.4,2.7c0.4,0.6,0.9,1.1,0.9,1.2
		c0.7,0.9,2.6,4.3,3.2,6c1.9,4.8,2.7,11,2.1,16.4c-0.2,1.9-0.2,2.7-0.1,3.4c0.7,3.9,0.2,7.5-1.3,10.1c-0.7,1.3-2.2,2.7-3.5,3.3
		c-1,0.5-1.2,0.5-2.8,0.5c-1.5,0-1.8,0-2.5-0.4c-0.5-0.2-0.9-0.5-0.9-0.6c-0.1-0.1-0.3,0.4-0.5,1.1c-0.5,1.5-1.2,2.5-2.6,3.9
		c-1.3,1.3-3.7,2.9-5.1,3.5c-0.2,0.1-0.5,0.3-0.5,0.4c0,0.1,0,4,0.1,8.7c0.1,4.7,0.1,11.6,0.1,15.3c0,3.7,0.1,7.2,0.1,7.6l0.1,0.8h1
		c0.6,0,1.3-0.1,1.6-0.2c1.1-0.5,3.1-0.6,4.7-0.4c1.3,0.2,3.2,0.9,4,1.5c0.8,0.6,3,2.9,3.5,3.8c1.1,1.6,2.5,4.6,2.3,4.8
		c-0.1,0.1-0.7,0.2-1.4,0.2c-0.7,0.1-2.1,0.2-3.1,0.3c-1,0.1-6.6,0.2-12.5,0.3l-10.7,0.1l-0.2-0.9c-0.1-0.5-0.3-1.2-0.4-1.5
		c-0.3-0.8-0.2-5.2,0.1-6.3c0.2-0.6,0.2-1.2,0.1-2.2c-0.1-1.5-0.5-5.2-0.8-9.4c-0.1-1.5-0.3-3-0.3-3.4c-0.1-0.3-0.2-2-0.3-3.7
		c-0.5-5.7-1-11.5-1.1-11.5c0,0-0.9,0-1.9,0.1c-1,0.1-3.5,0.1-5.6,0.1l-3.7-0.1l-0.2,1.2c-0.1,0.6-0.2,1.9-0.3,2.7
		c-0.1,0.8-0.2,2.3-0.3,3.1c-0.2,1.5-0.3,3.3-0.9,9.6c-0.3,3.2-0.5,5.7-0.8,8.2c-0.3,2.6-0.3,5,0,6.8c0.1,0.9,0.2,1.9,0.1,2.6
		c-0.1,1.5-0.6,4-0.8,4.4c-0.1,0.3-0.7,0.3-9.1,0.3C263.2,245.9,257.9,245.9,256.3,245.8L256.3,245.8z M313.4,177.5
		c0.4-1.3,0.8-3.7,0.9-5.7c0.1-2-0.3-4.7-0.9-6.7l-0.3-1v7.1c0,3.9,0,7.1,0.1,7.1C313.2,178.3,313.3,177.9,313.4,177.5L313.4,177.5z
		 M260.2,171.1c0-6.4,0-6.9-0.2-6.4c-1.1,3.1-1.3,7.6-0.5,11.3c0.3,1.2,0.5,2,0.7,2C260.2,178.1,260.2,174.9,260.2,171.1
		L260.2,171.1z"/>
</g>
<g id="XMLID_61_">
	<g id="XMLID_60_">
		<g>
			<path d="M86.7,98.1c0.8,2.6,1.1,5.3,0.8,7.8c-0.1,1.1-0.4,2.2-0.6,3.3c-0.2,0.8-0.4,1.6-0.8,2.4c-0.2,1.1-0.7,1.9-1.1,2.9
				c-0.3,0.8-0.9,1.6-1.2,2.4c-0.6,0.8-1,1.8-1.7,2.6c-0.9,1.2-1.6,2.5-2.7,3.5c-0.5,0.8-1.3,1.4-1.9,2.1c-0.8,0.6-1.4,1.3-2.2,1.9
				c-0.9,0.6-1.5,1.3-2.4,1.8c-0.8,0.5-1.6,1.2-2.5,1.6c-0.9,0.7-2,1.3-3.2,1.8c-1.4,0.8-3,1.4-4.5,1.9c-3.1,1.2-6.3,1.9-9.7,2.4
				l-0.7,0.1c-2.5,0.4-4.9,0.4-7.5,0.6c-1.9-0.1-3.8-0.1-5.7-0.2c-1.4-0.1-2.9-0.3-4.3-0.4c-1.1-0.2-2.3-0.3-3.4-0.6
				c-1.4,0-2.7-0.9-3.7-1.7c-0.8-0.8-1.8-1.2-2.5-2c-1-0.5-1.6-1.3-2.4-2c-0.9-1.6-1.3-3.4-1-5.2c0.5-0.9,1-1.8,2-2.2
				c2.2-0.7,4.3-1.7,6.6-2.2c2.4-0.9,5.1-1.2,7.6-1.9c3.7-0.5,7.2-1.6,10.9-2.2c2.4-0.5,4.7-1.1,6.9-1.9c1.7-0.6,3.4-1.2,4.9-2
				c0.9-0.6,2-0.9,2.7-1.7c0.8-0.4,1.5-1,2.2-1.5c0.6-0.7,1.5-1.1,2-1.9c0.7-0.8,1.4-1.6,2.1-2.4c0.3-1,1.2-1.7,1.5-2.7
				c0.4-0.8,0.8-1.7,1.2-2.5c0.4-0.8,0.6-1.8,0.9-2.6c0.3-1,0.5-1.9,0.7-2.9c-0.2-2.4-0.5-5.1-1.5-7.2c-1.3-0.7-1.1-2.8,0.2-3.5
				c0.8-0.8,1.9-1.3,3-1.7c1.3-0.8,4.4-0.9,3.9,1.3c-1.8,1.1-0.6,3.2-0.4,5c0.6,1.6,0.6,4.2,2.2,4.7c1.2,0.2,2.4,0.7,3.2,1.6
				C85.7,95.5,86,97,86.7,98.1z M85.8,106.4c0.4-1.7,0.3-3.7,0.1-5.5c-0.3-1.8-1.1-3.4-1.9-4.9c-0.3-1-1.5-1.3-2.4-1.6
				c-1.1,0.1-1.9-0.6-2.3-1.5c-1-1.9-1.1-4.3-1.9-6.3c-0.3-2,0.1-3-1.6-1.6c-0.8,0.7-2.9,0.6-1.5,1.9c0.7,2.1,1.4,4.2,1.3,6.4
				c0.1,1.3-0.2,2.5-0.5,3.7c-0.3,0.8-0.6,1.7-0.8,2.6c-0.4,0.7-0.6,1.6-1.1,2.3c-0.5,1.2-1.1,2.3-2,3.3c-0.7,1.1-1.4,2.2-2.4,3.1
				c-0.8,0.8-1.7,1.4-2.5,2.3c-0.7,0.6-1.5,1.1-2.3,1.6c-0.9,0.6-1.8,1.1-2.7,1.7c-1.6,0.7-3.1,1.4-4.8,2c-2.3,0.8-4.7,1.3-7.1,2
				c-3.5,0.5-6.9,1.6-10.5,2.1c-2.8,0.5-5.6,1.2-8.3,1.9c-1.9,0.7-3.8,1.2-5.5,2.1c-2.2,0.2,0.1,2.6-1,3.7c-0.7,0.9-0.3,1.8,0.6,2.4
				c0.8,0.7,1.7,1.3,2.5,2c0.8,0.6,1.7,1.1,2.3,1.8c0.9,0.7,2,0.8,3,1c1.3,0.1,2.6,0.4,4,0.4c1.6,0.1,3.2,0.4,4.9,0.3
				c1.9,0.4,3.9,0.1,5.9,0.1c2.6-0.3,5.1-0.4,7.7-0.8c0.4-0.1,0.9-0.1,1.3-0.3c2.3-0.7,4.7-1.1,6.9-2c1.5-0.5,2.9-1.2,4.3-1.9
				c0.9-0.6,2-1.1,2.9-1.7c0.7-0.6,1.7-1,2.4-1.6c0.6-0.6,1.4-1,2-1.7c0.8-0.6,1.6-1.3,2.2-2.1c0.7-0.6,1.2-1.2,1.8-1.9
				c1.1-1.3,2-2.8,3-4.1c0.3-0.9,0.9-1.6,1.2-2.5c0.4-0.8,0.6-1.6,1.1-2.3c0.4-0.8,0.6-1.7,0.9-2.6
				C85.3,108.8,85.8,107.7,85.8,106.4z"/>
			<path d="M85.9,100.9c0.2,1.8,0.3,3.8-0.1,5.5c0.1,1.3-0.5,2.4-0.7,3.7c-0.3,0.9-0.5,1.7-0.9,2.6c-0.4,0.7-0.7,1.6-1.1,2.3
				c-0.3,0.8-0.9,1.6-1.2,2.5c-1.1,1.3-1.9,2.8-3,4.1c-0.6,0.7-1.2,1.3-1.8,1.9c-0.7,0.8-1.4,1.5-2.2,2.1c-0.5,0.7-1.4,1.1-2,1.7
				c-0.7,0.6-1.7,1-2.4,1.6c-0.9,0.6-2,1.1-2.9,1.7c-1.4,0.7-2.8,1.3-4.3,1.9c-2.2,0.9-4.6,1.4-6.9,2c-0.4,0.3-0.8,0.2-1.3,0.3
				c-2.6,0.4-5.1,0.5-7.7,0.8c-2,0-4,0.3-5.9-0.1c-1.7,0.2-3.3-0.2-4.9-0.3c-1.3-0.1-2.6-0.4-4-0.4c-1.1-0.2-2.1-0.3-3-1
				c-0.6-0.7-1.5-1.2-2.3-1.8c-0.8-0.7-1.7-1.3-2.5-2c-0.9-0.6-1.4-1.4-0.6-2.4c1.1-1.1-1.2-3.5,1-3.7c1.7-0.9,3.6-1.5,5.5-2.1
				c2.8-0.6,5.5-1.4,8.3-1.9c3.6-0.5,7-1.5,10.5-2.1c2.4-0.6,4.8-1.1,7.1-2c1.7-0.6,3.2-1.3,4.8-2c0.9-0.6,1.8-1.1,2.7-1.7
				c0.8-0.5,1.5-1,2.3-1.6c0.8-0.8,1.7-1.4,2.5-2.3c1-0.9,1.7-2,2.4-3.1c0.9-1,1.5-2.1,2-3.3c0.4-0.7,0.7-1.5,1.1-2.3
				c0.2-0.9,0.5-1.8,0.8-2.6c0.3-1.2,0.6-2.4,0.5-3.7c0.1-2.3-0.6-4.3-1.3-6.4c-1.3-1.4,0.7-1.2,1.5-1.9c1.7-1.4,1.3-0.4,1.6,1.6
				c0.8,2,0.9,4.4,1.9,6.3c0.4,0.9,1.3,1.6,2.3,1.5c0.9,0.3,2,0.6,2.4,1.6C84.8,97.5,85.6,99.1,85.9,100.9z"/>
		</g>
		<g>
		</g>
	</g>
</g>
</svg>
